<?xml version="1.0" standalone="no"?>
<!DOCTYPE svg PUBLIC "-//W3C//DTD SVG 20010904//EN"
 "http://www.w3.org/TR/2001/REC-SVG-20010904/DTD/svg10.dtd">
<svg version="1.0" xmlns="http://www.w3.org/2000/svg"
 width="512.000000pt" height="512.000000pt" viewBox="0 0 512.000000 512.000000"
 preserveAspectRatio="xMidYMid meet">
<metadata>
Created by potrace 1.14, written by Peter Selinger 2001-2017
</metadata>
<g transform="translate(0.000000,512.000000) scale(0.100000,-0.100000)"
fill="#000000" stroke="none">
<path d="M1920 5102 c-21 -11 -43 -35 -57 -61 -20 -39 -21 -55 -20 -219 2
-166 3 -179 24 -208 42 -59 67 -64 307 -64 l216 0 -2 -231 -3 -232 -35 -3
c-189 -19 -423 -83 -621 -168 -10 -5 -20 3 -32 26 -9 18 -21 40 -27 48 -18 28
-73 124 -106 189 -35 67 -34 83 6 96 10 3 23 18 30 34 12 30 5 48 -77 186 -16
28 -33 59 -37 70 -18 50 -71 124 -92 129 -32 8 -461 -227 -477 -261 -13 -29
-16 -23 135 -293 56 -101 82 -114 143 -74 22 14 23 13 120 -156 53 -94 95
-173 94 -174 -2 -1 -42 -31 -89 -67 -175 -132 -378 -357 -503 -561 -112 -181
-214 -441 -256 -649 -61 -301 -54 -615 19 -906 132 -526 466 -976 931 -1259
243 -147 538 -248 829 -283 79 -10 421 -7 480 3 19 4 73 13 120 21 47 9 110
22 140 31 30 8 62 17 70 19 101 25 382 151 485 217 238 151 426 326 593 550
34 47 62 88 62 92 0 4 16 31 35 60 120 182 242 532 271 781 4 33 8 74 10 90 6
44 5 336 -1 364 -2 13 -7 49 -10 80 -7 56 -47 249 -64 306 -71 232 -194 471
-342 667 -82 108 -271 296 -380 379 l-87 65 27 49 c14 28 57 105 94 172 l68
121 41 -18 c26 -12 49 -15 62 -11 19 7 75 101 178 298 27 52 30 65 21 86 -8
16 -79 61 -233 147 -214 119 -223 123 -248 109 -25 -14 -177 -271 -201 -340
-13 -37 -2 -57 44 -84 l32 -20 -89 -155 c-49 -85 -92 -161 -97 -169 -6 -10
-13 -11 -30 -2 -29 16 -204 80 -266 97 -73 20 -232 53 -295 60 -30 4 -62 8
-70 9 -13 2 -15 37 -18 233 l-2 232 217 0 c244 0 268 5 310 69 22 32 23 43 23
216 0 173 -1 184 -23 216 -47 71 -22 69 -702 69 -571 0 -613 -1 -645 -18z"/>
</g>
</svg>
